<svg width="683" height="669" viewBox="0 0 683 669" fill="none" xmlns="http://www.w3.org/2000/svg">
<path d="M352.093 667.207C533.885 667.207 681.257 520.04 681.257 338.501C681.257 156.963 533.885 9.79626 352.093 9.79626C170.301 9.79626 22.9287 156.963 22.9287 338.501C22.9287 520.04 170.301 667.207 352.093 667.207Z" stroke="#69BEF1" stroke-width="3" stroke-miterlimit="10"/>
<path d="M342.581 662.708C524.373 662.708 671.745 515.542 671.745 334.003C671.745 152.464 524.373 5.29797 342.581 5.29797C160.788 5.29797 13.4165 152.464 13.4165 334.003C13.4165 515.542 160.788 662.708 342.581 662.708Z" stroke="#69BEF1" stroke-width="3" stroke-miterlimit="10"/>
<path d="M331.604 659.319C513.397 659.319 660.769 512.152 660.769 330.613C660.769 149.075 513.397 1.9082 331.604 1.9082C149.812 1.9082 2.43994 149.075 2.43994 330.613C2.43994 512.152 149.812 659.319 331.604 659.319Z" stroke="#69BEF1" stroke-width="3" stroke-miterlimit="10"/>
</svg>
