<svg width="1442" height="158" viewBox="0 0 1442 158" fill="none" xmlns="http://www.w3.org/2000/svg">
<path d="M1440.89 158L1.00037 158L0.885376 108L515.959 115.5L791.034 98L1440.89 0.5V158Z" fill="#365067"/>
<path d="M415.11 156.231L1439.36 2" stroke="white" stroke-width="3"/>
<path d="M1.78823 146.785L1440.21 61.7173" stroke="white" stroke-width="3"/>
<path d="M643.968 147.479C647.896 147.479 650.937 144.474 650.937 140.501C650.937 136.511 647.896 133.522 643.968 133.522C640.057 133.522 636.998 136.511 636.998 140.501C636.998 144.474 640.057 147.479 643.968 147.479ZM643.968 146.249C640.76 146.249 638.237 143.788 638.237 140.501C638.237 137.196 640.76 134.753 643.968 134.753C647.193 134.753 649.698 137.196 649.698 140.501C649.698 143.788 647.193 146.249 643.968 146.249ZM644.126 144.21C645.567 144.21 646.71 143.384 647 142.681C647.07 142.54 647.097 142.408 647.097 142.285C647.097 141.969 646.859 141.714 646.525 141.714C646.279 141.714 646.147 141.819 645.928 142.18C645.567 142.777 644.961 143.12 644.117 143.12C642.781 143.12 641.893 142.127 641.893 140.483C641.893 138.866 642.772 137.882 644.117 137.882C644.978 137.882 645.541 138.242 645.901 138.822C646.086 139.121 646.27 139.253 646.516 139.253C646.859 139.253 647.07 139.024 647.07 138.717C647.07 138.594 647.035 138.462 646.974 138.33C646.622 137.627 645.541 136.792 644.117 136.792C642.008 136.792 640.645 138.225 640.645 140.483C640.645 142.786 642.016 144.21 644.126 144.21ZM656.905 146.003H663.892C664.341 146.003 664.64 145.722 664.64 145.3C664.64 144.878 664.341 144.597 663.892 144.597H658.355V144.562L661.537 141.292C663.708 139.068 664.341 138.022 664.341 136.634C664.341 134.586 662.688 133.109 660.403 133.109C657.81 133.109 656.413 134.797 656.228 136.098C656.211 136.203 656.202 136.3 656.202 136.414C656.202 136.827 656.466 137.117 656.932 137.117C657.362 137.117 657.538 136.889 657.643 136.563C658.074 135.201 659.032 134.489 660.403 134.489C661.766 134.489 662.759 135.438 662.759 136.73C662.759 137.794 662.354 138.471 660.649 140.255L656.589 144.491C656.211 144.887 656.141 145.027 656.141 145.353C656.141 145.748 656.439 146.003 656.905 146.003ZM670.818 146.214C673.771 146.214 675.476 143.656 675.476 139.648C675.476 135.667 673.763 133.109 670.818 133.109C667.874 133.109 666.142 135.685 666.142 139.657C666.142 143.665 667.856 146.214 670.818 146.214ZM670.818 144.834C668.832 144.834 667.733 142.812 667.733 139.648C667.733 136.555 668.858 134.498 670.818 134.498C672.778 134.498 673.886 136.537 673.886 139.657C673.886 142.821 672.796 144.834 670.818 144.834ZM677.841 146.003H684.828C685.276 146.003 685.575 145.722 685.575 145.3C685.575 144.878 685.276 144.597 684.828 144.597H679.291V144.562L682.473 141.292C684.643 139.068 685.276 138.022 685.276 136.634C685.276 134.586 683.624 133.109 681.339 133.109C678.746 133.109 677.349 134.797 677.164 136.098C677.146 136.203 677.138 136.3 677.138 136.414C677.138 136.827 677.401 137.117 677.867 137.117C678.298 137.117 678.474 136.889 678.579 136.563C679.01 135.201 679.968 134.489 681.339 134.489C682.701 134.489 683.694 135.438 683.694 136.73C683.694 137.794 683.29 138.471 681.585 140.255L677.524 144.491C677.146 144.887 677.076 145.027 677.076 145.353C677.076 145.748 677.375 146.003 677.841 146.003ZM688.036 146.003H695.023C695.472 146.003 695.77 145.722 695.77 145.3C695.77 144.878 695.472 144.597 695.023 144.597H689.486V144.562L692.668 141.292C694.839 139.068 695.472 138.022 695.472 136.634C695.472 134.586 693.819 133.109 691.534 133.109C688.941 133.109 687.544 134.797 687.359 136.098C687.342 136.203 687.333 136.3 687.333 136.414C687.333 136.827 687.597 137.117 688.062 137.117C688.493 137.117 688.669 136.889 688.774 136.563C689.205 135.201 690.163 134.489 691.534 134.489C692.896 134.489 693.89 135.438 693.89 136.73C693.89 137.794 693.485 138.471 691.78 140.255L687.72 144.491C687.342 144.887 687.271 145.027 687.271 145.353C687.271 145.748 687.57 146.003 688.036 146.003ZM701.448 146.126C701.844 146.126 702.072 145.941 702.222 145.52L703.338 142.373H708.356L709.481 145.52C709.631 145.941 709.859 146.126 710.255 146.126C710.712 146.126 711.046 145.836 711.046 145.432C711.046 145.317 711.019 145.186 710.949 144.992L706.862 133.953C706.669 133.435 706.352 133.197 705.869 133.197C705.35 133.197 705.025 133.443 704.832 133.962L700.754 144.992C700.683 145.186 700.657 145.317 700.657 145.432C700.657 145.836 700.991 146.126 701.448 146.126ZM703.795 141.028L705.825 135.245H705.878L707.908 141.028H703.795ZM713.366 146.161C713.814 146.161 714.131 145.827 714.131 145.344V133.979C714.131 133.496 713.814 133.162 713.366 133.162C712.918 133.162 712.601 133.496 712.601 133.979V145.344C712.601 145.827 712.918 146.161 713.366 146.161ZM717.04 146.161C717.488 146.161 717.805 145.827 717.805 145.344V133.979C717.805 133.496 717.488 133.162 717.04 133.162C716.592 133.162 716.275 133.496 716.275 133.979V145.344C716.275 145.827 716.592 146.161 717.04 146.161ZM724.59 146.161C725.064 146.161 725.381 145.836 725.381 145.344V140.984H728.413L730.953 145.651C731.155 146.029 731.366 146.161 731.726 146.161C732.183 146.161 732.535 145.845 732.535 145.432C732.535 145.256 732.491 145.098 732.368 144.878L730.048 140.738C731.639 140.237 732.597 138.866 732.597 137.1C732.597 134.814 730.997 133.32 728.554 133.32H724.59C724.106 133.32 723.799 133.637 723.799 134.138V145.344C723.799 145.836 724.115 146.161 724.59 146.161ZM725.381 139.587V134.727H728.343C729.977 134.727 730.962 135.632 730.962 137.152C730.962 138.708 730.039 139.587 728.413 139.587H725.381ZM735.198 135.324C735.725 135.324 736.156 134.894 736.156 134.375C736.156 133.848 735.725 133.426 735.198 133.426C734.68 133.426 734.249 133.848 734.249 134.375C734.249 134.894 734.68 135.324 735.198 135.324ZM735.198 146.161C735.646 146.161 735.963 145.827 735.963 145.344V137.521C735.963 137.038 735.646 136.704 735.198 136.704C734.75 136.704 734.433 137.038 734.433 137.521V145.344C734.433 145.827 734.75 146.161 735.198 146.161ZM741.72 149.448C744.321 149.475 745.938 147.998 745.938 145.818V137.495C745.938 137.021 745.613 136.704 745.174 136.704C744.734 136.704 744.409 137.021 744.409 137.495V138.365H744.383C743.776 137.337 742.766 136.704 741.474 136.704C739.109 136.704 737.58 138.532 737.58 141.397C737.58 144.236 739.109 146.073 741.438 146.073C742.722 146.073 743.811 145.423 744.374 144.43H744.409V145.871C744.409 147.233 743.416 148.174 741.781 148.147C740.849 148.13 740.208 147.796 739.426 146.935C739.188 146.671 739.039 146.583 738.784 146.583C738.38 146.583 738.099 146.855 738.099 147.242C738.099 147.444 738.151 147.62 738.274 147.813C738.916 148.824 740.19 149.431 741.72 149.448ZM741.746 144.729C740.173 144.729 739.144 143.445 739.144 141.397C739.144 139.35 740.173 138.049 741.746 138.049C743.337 138.049 744.409 139.385 744.409 141.397C744.409 143.41 743.337 144.729 741.746 144.729ZM748.768 146.161C749.217 146.161 749.533 145.827 749.533 145.344V140.677C749.533 139.095 750.474 138.058 751.994 138.058C753.427 138.058 754.156 138.928 754.156 140.378V145.344C754.156 145.827 754.473 146.161 754.921 146.161C755.369 146.161 755.685 145.827 755.685 145.344V140.097C755.685 138.058 754.473 136.704 752.469 136.704C751.08 136.704 750.078 137.302 749.568 138.321H749.533V133.962C749.533 133.487 749.234 133.162 748.768 133.162C748.311 133.162 748.004 133.487 748.004 133.962V145.344C748.004 145.827 748.32 146.161 748.768 146.161ZM758.12 143.894C758.12 145.353 758.858 146.073 760.335 146.073H760.432C761.284 146.073 761.548 145.827 761.548 145.361C761.548 145.001 761.319 144.799 760.818 144.764L760.686 144.755C759.922 144.702 759.649 144.333 759.649 143.56V138.119H760.827C761.266 138.119 761.513 137.891 761.513 137.486C761.513 137.091 761.266 136.862 760.827 136.862H759.649V135.298C759.649 134.814 759.333 134.48 758.885 134.48C758.436 134.48 758.12 134.814 758.12 135.298V136.862H757.355C756.916 136.862 756.67 137.091 756.67 137.486C756.67 137.891 756.916 138.119 757.355 138.119H758.12V143.894ZM766.232 146.161C768.403 146.161 769.871 145.062 769.871 143.428C769.871 142.083 769.168 141.415 767.261 140.949L765.898 140.615C764.896 140.369 764.404 139.93 764.404 139.297C764.404 138.515 765.169 137.961 766.267 137.961C767.199 137.961 767.788 138.295 768.183 139.06C768.35 139.376 768.561 139.473 768.86 139.473C769.229 139.473 769.458 139.235 769.458 138.875C769.458 138.805 769.449 138.734 769.432 138.646C769.194 137.548 767.858 136.704 766.355 136.704C764.29 136.704 762.892 137.785 762.892 139.376C762.892 140.659 763.745 141.494 765.512 141.934L766.909 142.285C767.937 142.54 768.315 142.892 768.315 143.551C768.315 144.403 767.524 144.913 766.355 144.913C765.186 144.913 764.641 144.553 764.184 143.753C764.009 143.437 763.789 143.296 763.516 143.296C763.121 143.296 762.822 143.524 762.822 143.929C762.822 144.043 762.84 144.157 762.892 144.289C763.332 145.432 764.606 146.161 766.232 146.161ZM776.164 146.161C776.639 146.161 776.955 145.836 776.955 145.344V140.984H779.987L782.527 145.651C782.729 146.029 782.94 146.161 783.301 146.161C783.758 146.161 784.109 145.845 784.109 145.432C784.109 145.256 784.065 145.098 783.942 144.878L781.622 140.738C783.213 140.237 784.171 138.866 784.171 137.1C784.171 134.814 782.571 133.32 780.128 133.32H776.164C775.681 133.32 775.373 133.637 775.373 134.138V145.344C775.373 145.836 775.689 146.161 776.164 146.161ZM776.955 139.587V134.727H779.917C781.552 134.727 782.536 135.632 782.536 137.152C782.536 138.708 781.613 139.587 779.987 139.587H776.955ZM789.761 146.161C791.431 146.161 792.714 145.458 793.303 144.219C793.373 144.052 793.417 143.894 793.417 143.771C793.417 143.366 793.144 143.103 792.74 143.103C792.503 143.103 792.327 143.19 792.169 143.41C791.457 144.447 790.789 144.834 789.699 144.834C788.064 144.834 787.054 143.691 787.054 141.846H792.766C793.294 141.846 793.61 141.512 793.61 140.958C793.61 138.453 791.967 136.704 789.629 136.704C787.106 136.704 785.48 138.585 785.48 141.468C785.48 144.421 787.062 146.161 789.761 146.161ZM787.062 140.65C787.159 139.077 788.179 138.031 789.602 138.031C791.017 138.031 791.993 139.068 792.028 140.65H787.062ZM798.33 146.161C800.501 146.161 801.969 145.062 801.969 143.428C801.969 142.083 801.266 141.415 799.358 140.949L797.996 140.615C796.994 140.369 796.502 139.93 796.502 139.297C796.502 138.515 797.266 137.961 798.365 137.961C799.297 137.961 799.886 138.295 800.281 139.06C800.448 139.376 800.659 139.473 800.958 139.473C801.327 139.473 801.556 139.235 801.556 138.875C801.556 138.805 801.547 138.734 801.529 138.646C801.292 137.548 799.956 136.704 798.453 136.704C796.388 136.704 794.99 137.785 794.99 139.376C794.99 140.659 795.843 141.494 797.609 141.934L799.007 142.285C800.035 142.54 800.413 142.892 800.413 143.551C800.413 144.403 799.622 144.913 798.453 144.913C797.284 144.913 796.739 144.553 796.282 143.753C796.106 143.437 795.887 143.296 795.614 143.296C795.219 143.296 794.92 143.524 794.92 143.929C794.92 144.043 794.937 144.157 794.99 144.289C795.43 145.432 796.704 146.161 798.33 146.161ZM807.374 146.161C809.044 146.161 810.327 145.458 810.916 144.219C810.986 144.052 811.03 143.894 811.03 143.771C811.03 143.366 810.758 143.103 810.353 143.103C810.116 143.103 809.94 143.19 809.782 143.41C809.07 144.447 808.402 144.834 807.312 144.834C805.678 144.834 804.667 143.691 804.667 141.846H810.38C810.907 141.846 811.224 141.512 811.224 140.958C811.224 138.453 809.58 136.704 807.242 136.704C804.72 136.704 803.094 138.585 803.094 141.468C803.094 144.421 804.676 146.161 807.374 146.161ZM804.676 140.65C804.772 139.077 805.792 138.031 807.216 138.031C808.631 138.031 809.606 139.068 809.641 140.65H804.676ZM813.535 146.161C813.983 146.161 814.3 145.827 814.3 145.344V140.325C814.3 139.156 814.889 138.163 816.268 138.163C816.602 138.163 816.84 138.102 816.998 137.97C817.156 137.847 817.235 137.671 817.235 137.434C817.235 137.223 817.174 137.047 817.042 136.924C816.892 136.783 816.655 136.704 816.321 136.704C815.407 136.704 814.511 137.407 814.247 138.356H814.212V137.478C814.212 137.021 813.913 136.704 813.491 136.704C813.069 136.704 812.77 137.021 812.77 137.478V145.344C812.77 145.827 813.087 146.161 813.535 146.161ZM821.674 146.161C822.166 146.161 822.491 145.915 822.693 145.388L825.594 137.803C825.646 137.671 825.673 137.539 825.673 137.407C825.673 136.985 825.374 136.704 824.917 136.704C824.583 136.704 824.354 136.889 824.214 137.284L821.7 144.377H821.665L819.16 137.284C819.019 136.889 818.791 136.704 818.448 136.704C817.991 136.704 817.683 136.985 817.683 137.407C817.683 137.539 817.71 137.671 817.763 137.803L820.672 145.388C820.891 145.941 821.173 146.161 821.674 146.161ZM830.595 146.161C832.265 146.161 833.548 145.458 834.137 144.219C834.207 144.052 834.251 143.894 834.251 143.771C834.251 143.366 833.978 143.103 833.574 143.103C833.337 143.103 833.161 143.19 833.003 143.41C832.291 144.447 831.623 144.834 830.533 144.834C828.898 144.834 827.888 143.691 827.888 141.846H833.6C834.128 141.846 834.444 141.512 834.444 140.958C834.444 138.453 832.801 136.704 830.463 136.704C827.94 136.704 826.314 138.585 826.314 141.468C826.314 144.421 827.896 146.161 830.595 146.161ZM827.896 140.65C827.993 139.077 829.013 138.031 830.436 138.031C831.851 138.031 832.827 139.068 832.862 140.65H827.896ZM839.454 146.161C840.887 146.161 841.836 145.458 842.337 144.368H842.363V145.414C842.363 145.862 842.715 146.161 843.145 146.161C843.585 146.161 843.892 145.854 843.892 145.414V133.979C843.892 133.496 843.576 133.162 843.128 133.162C842.68 133.162 842.363 133.496 842.363 133.979V138.348H842.328C841.783 137.346 840.728 136.704 839.419 136.704C837.116 136.704 835.543 138.567 835.543 141.433C835.543 144.298 837.125 146.161 839.454 146.161ZM839.744 144.816C838.127 144.816 837.107 143.507 837.107 141.433C837.107 139.367 838.127 138.049 839.744 138.049C841.317 138.049 842.372 139.394 842.372 141.433C842.372 143.48 841.317 144.816 839.744 144.816Z" fill="white"/>
<path d="M1.00009 110.23L1441 127.27" stroke="white" stroke-width="3"/>
</svg>
