<svg width="100" height="100" viewBox="0 0 100 100" fill="none" xmlns="http://www.w3.org/2000/svg">
<path fill-rule="evenodd" clip-rule="evenodd" d="M49.9998 4.16663C24.6873 4.16663 4.1665 24.6875 4.1665 50C4.1665 75.3125 24.6873 95.8333 49.9998 95.8333C75.3123 95.8333 95.8332 75.3125 95.8332 50C95.8332 24.6875 75.3123 4.16663 49.9998 4.16663ZM59.1957 36.2791C59.9547 35.4933 60.3746 34.4408 60.3651 33.3483C60.3556 32.2558 59.9174 31.2107 59.1449 30.4382C58.3724 29.6657 57.3273 29.2275 56.2348 29.218C55.1424 29.2085 54.0898 29.6285 53.304 30.3875L36.6373 47.0541C35.8562 47.8355 35.4174 48.8951 35.4174 50C35.4174 51.1048 35.8562 52.1644 36.6373 52.9458L53.304 69.6125C54.0898 70.3715 55.1424 70.7914 56.2348 70.7819C57.3273 70.7724 58.3724 70.3342 59.1449 69.5617C59.9174 68.7892 60.3556 67.7441 60.3651 66.6516C60.3746 65.5591 59.9547 64.5066 59.1957 63.7208L45.4748 50L59.1957 36.2791Z" fill="#6FA4FF"/>
</svg>
