<svg width="757" height="756" viewBox="0 0 757 756" fill="none" xmlns="http://www.w3.org/2000/svg">
<path d="M390.556 731.322C591.833 731.322 755 568.155 755 366.878C755 165.6 591.833 2.43311 390.556 2.43311C189.279 2.43311 26.1113 165.6 26.1113 366.878C26.1113 568.155 189.279 731.322 390.556 731.322Z" stroke="#FCFEFF" stroke-width="3" stroke-miterlimit="10"/>
<path d="M390.556 754.1C591.833 754.1 755 590.932 755 389.655C755 188.378 591.833 25.2109 390.556 25.2109C189.279 25.2109 26.1113 188.378 26.1113 389.655C26.1113 590.932 189.279 754.1 390.556 754.1Z" stroke="#FCFEFF" stroke-width="3" stroke-miterlimit="10"/>
<path d="M365.956 754.1C567.233 754.1 730.4 590.932 730.4 389.655C730.4 188.378 567.233 25.2109 365.956 25.2109C164.679 25.2109 1.51123 188.378 1.51123 389.655C1.51123 590.932 164.679 754.1 365.956 754.1Z" stroke="#FCFEFF" stroke-width="3" stroke-miterlimit="10"/>
</svg>
