<svg width="45" height="45" viewBox="0 0 45 45" fill="none" xmlns="http://www.w3.org/2000/svg">
<rect x="1.41895" y="1.65234" width="41.4115" height="41.5" rx="20.7058" fill="#40629B" stroke="white" stroke-width="2.5"/>
<path d="M28.5693 14.2586L22.0017 20.8263L15.4341 14.2586C15.2761 14.1141 15.0685 14.036 14.8544 14.0408C14.6403 14.0455 14.4363 14.1327 14.2849 14.2841C14.1335 14.4355 14.0464 14.6395 14.0416 14.8535C14.0369 15.0676 14.1149 15.2752 14.2595 15.4332L20.8238 22.0008L14.2578 28.5668C14.1776 28.6432 14.1135 28.735 14.0692 28.8365C14.0249 28.9381 14.0014 29.0475 14.0001 29.1583C13.9987 29.2691 14.0195 29.3791 14.0612 29.4817C14.103 29.5844 14.1648 29.6777 14.2431 29.7561C14.3214 29.8345 14.4146 29.8965 14.5172 29.9383C14.6198 29.9802 14.7297 30.0012 14.8405 29.9999C14.9513 29.9987 15.0607 29.9754 15.1624 29.9313C15.264 29.8871 15.3558 29.8231 15.4324 29.743L22.0017 23.1771L28.5693 29.7447C28.7273 29.8893 28.9349 29.9673 29.149 29.9625C29.363 29.9578 29.567 29.8706 29.7184 29.7192C29.8698 29.5678 29.957 29.3639 29.9617 29.1498C29.9665 28.9357 29.8884 28.7281 29.7439 28.5701L23.1763 22.0025L29.7439 15.4332C29.8241 15.3568 29.8882 15.265 29.9325 15.1635C29.9768 15.0619 30.0003 14.9525 30.0016 14.8417C30.003 14.7309 29.9822 14.6209 29.9405 14.5183C29.8987 14.4156 29.8369 14.3223 29.7586 14.2439C29.6803 14.1655 29.5871 14.1035 29.4845 14.0617C29.382 14.0198 29.272 13.9988 29.1612 14C29.0504 14.0013 28.941 14.0246 28.8393 14.0687C28.7377 14.1129 28.6459 14.1769 28.5693 14.257V14.2586Z" fill="white" stroke="white" stroke-width="1.5"/>
</svg>
