<svg width="140" height="102" viewBox="0 0 140 102" fill="none" xmlns="http://www.w3.org/2000/svg">
<ellipse cx="67.121" cy="50.914" rx="50.4247" ry="50.5263" fill="#142F46"/>
<path d="M68.2882 96.2679C94.3512 96.2679 115.478 75.0974 115.478 48.9843C115.478 22.8712 94.3512 1.70068 68.2882 1.70068C42.2252 1.70068 21.0986 22.8712 21.0986 48.9843C21.0986 75.0974 42.2252 96.2679 68.2882 96.2679Z" stroke="#FCFEFF" stroke-miterlimit="10"/>
<path d="M68.2882 99.1918C94.3512 99.1918 115.478 78.0212 115.478 51.9081C115.478 25.7951 94.3512 4.62451 68.2882 4.62451C42.2252 4.62451 21.0986 25.7951 21.0986 51.9081C21.0986 78.0212 42.2252 99.1918 68.2882 99.1918Z" stroke="#FCFEFF" stroke-miterlimit="10"/>
<path d="M65.1368 99.1918C91.1998 99.1918 112.326 78.0212 112.326 51.9081C112.326 25.7951 91.1998 4.62451 65.1368 4.62451C39.0738 4.62451 17.9473 25.7951 17.9473 51.9081C17.9473 78.0212 39.0738 99.1918 65.1368 99.1918Z" stroke="#FCFEFF" stroke-miterlimit="10"/>
<path d="M43.0433 34.079C43.2231 33.5995 43.4219 33.1223 43.6398 32.6474C43.8569 32.1714 44.0705 31.5024 44.2794 31.1047C44.6692 30.3515 45.103 29.622 45.5786 28.9199C46.0297 28.2699 46.575 27.6909 47.1963 27.2018C47.3423 27.1889 47.4905 27.1071 47.7228 27.0767C48.0333 27.0467 48.346 27.0467 48.6566 27.0767C48.8621 27.1002 49.0622 27.1583 49.2484 27.2486C49.3651 27.3199 49.5904 27.5445 49.5507 27.7281C48.7733 28.5971 48.1897 29.065 47.5092 30.2755C47.2174 30.7936 46.3221 32.4568 45.819 33.9585L45.4525 35.0299C45.1506 35.8096 44.8883 36.5811 44.6658 37.3445C44.4432 38.1078 44.2627 38.8412 44.1242 39.5445C43.9927 40.1988 43.8941 40.8592 43.8289 41.5234C43.7725 42.0718 43.7643 42.624 43.8044 43.1737C43.8627 43.8591 44.1351 44.2201 44.6214 44.2568C45.0489 44.1612 45.4616 44.0081 45.8482 43.8018C46.2162 43.6064 46.5523 43.356 46.845 43.0591C46.9454 43.1913 47.0399 43.3012 47.0294 43.3948C47.0096 43.5597 46.817 43.7164 46.6209 43.9199C46.4248 44.1234 46.2089 44.3246 45.9754 44.5234C45.7586 44.7095 45.5297 44.8811 45.2902 45.0369C45.1346 45.1472 44.963 45.2328 44.7813 45.2907C44.4148 45.3211 44.0425 45.3924 43.6643 45.2685C43.2941 45.1486 42.941 44.9812 42.6138 44.7702C42.2939 44.562 42.0302 44.2065 41.8119 43.9351C41.613 43.7009 41.4883 43.4126 41.4535 43.1071C41.4229 42.6328 41.4304 42.1568 41.4757 41.6837C41.5224 41.1082 41.4886 40.4778 41.6064 39.7936C41.7243 39.1094 41.8702 38.3901 42.0418 37.6404C42.2134 36.8907 42.4072 36.1445 42.6254 35.4053L43.0433 34.079Z" fill="white"/>
<path d="M54.2596 44.3924C53.9979 44.1744 53.8106 43.88 53.7239 43.5503C53.6414 43.2696 53.5955 42.9795 53.5873 42.6871C53.5818 42.4305 53.6173 42.1746 53.6923 41.9292C53.6363 41.9292 53.5106 42.0411 53.3153 42.2649C53.12 42.4887 52.906 42.7546 52.6733 43.0625C52.4399 43.3705 52.2127 43.6715 51.9917 43.9655C51.7707 44.2594 51.6026 44.4778 51.4874 44.6204C51.3323 44.7919 51.1598 44.9468 50.9727 45.0824C50.858 45.1723 50.7255 45.2365 50.584 45.2707C50.3459 45.2681 50.1097 45.2287 49.8836 45.1538C49.6386 45.0764 49.4054 44.9659 49.1903 44.8251C48.9757 44.6869 48.7843 44.5156 48.623 44.3175C48.4624 44.1204 48.3508 43.8879 48.2974 43.6392C48.2974 43.2493 48.3083 42.9265 48.33 42.6707C48.3541 42.3948 48.3994 42.121 48.4654 41.852C48.6166 41.2384 48.8025 40.6339 49.0222 40.0415C49.2693 39.3636 49.5534 38.6999 49.8731 38.0532C50.1867 37.4157 50.5489 36.8034 50.9563 36.2216C51.302 35.708 51.7313 35.2561 52.2263 34.8848C52.3739 34.8863 52.5212 34.8968 52.6675 34.9163C52.8427 34.9394 53.0154 34.9786 53.1834 35.0333C53.3554 35.0886 53.5235 35.1554 53.6865 35.2333C53.8423 35.3067 53.982 35.4105 54.0974 35.5386C53.9713 35.6789 53.6523 36.1491 53.1402 36.9491C52.6282 37.7491 52.0574 38.9 51.4279 40.4017C51.3579 40.5577 51.2738 40.7822 51.1758 41.0754C51.0777 41.3686 50.9773 41.6742 50.8746 41.9924C50.7758 42.3152 50.6949 42.631 50.6318 42.9397C50.5769 43.1818 50.5453 43.4285 50.5373 43.6766C50.5317 43.764 50.5498 43.8513 50.5898 43.9292C50.6166 43.975 50.6488 44.0174 50.6855 44.0555C50.8949 43.9713 51.1606 43.7397 51.4828 43.3608C51.8049 42.9818 52.2531 42.3994 52.8274 41.6134C52.9675 41.4169 53.1321 41.1924 53.3212 40.9397C53.5103 40.6871 53.7048 40.4169 53.9048 40.1292C54.0993 39.8415 54.2845 39.5432 54.4604 39.2345C54.6295 38.9381 54.7739 38.6283 54.8923 38.3082C54.9475 38.1397 55.0207 37.9397 55.1117 37.7082C55.2104 37.4601 55.3226 37.2176 55.4479 36.9818C55.5895 36.7174 55.7453 36.4609 55.9148 36.2134C56.0939 35.9488 56.3022 35.7051 56.5357 35.4871C56.7319 35.4892 56.9273 35.5103 57.1194 35.5503C57.3216 35.5905 57.5212 35.6433 57.717 35.7082C57.8876 35.7631 58.0529 35.8336 58.2107 35.9187C58.3297 35.9794 58.4365 36.0614 58.5259 36.1608C58.2737 36.7783 57.9936 37.3889 57.6855 37.9924C57.3773 38.5959 57.0913 39.1889 56.8275 39.7713C56.5683 40.336 56.3438 40.916 56.1552 41.5082C55.9785 42.0522 55.8868 42.6203 55.8832 43.1924C55.8793 43.4504 55.9035 43.7081 55.9556 43.9608C55.9954 44.1467 56.0481 44.3296 56.1132 44.5082C56.1596 44.6337 56.2125 44.7567 56.2719 44.8766C56.3144 44.9544 56.3391 45.0407 56.3443 45.1292C56.3443 45.1432 56.3303 45.1643 56.3023 45.1924C56.297 45.1985 56.2906 45.2035 56.2834 45.2071C56.2762 45.2108 56.2683 45.2129 56.2603 45.2134C56.1324 45.2087 56.0057 45.1875 55.8832 45.1503C55.7078 45.1011 55.5355 45.0414 55.3673 44.9713C55.1782 44.8933 54.9891 44.8056 54.8 44.7082C54.6144 44.6127 54.434 44.5073 54.2596 44.3924Z" fill="white"/>
<path d="M1.03347 30.1176C-0.650858 29.3948 5.5857 36.1994 18.7755 37.486C35.0001 39.0696 63.0792 30.7877 59.8623 31.2872C25.1953 36.6673 14.1065 35.7316 1.03347 30.1176Z" fill="white"/>
<path d="M46.4847 69.7914C46.2676 69.729 46.1431 69.4951 46.1112 69.0896C46.043 68.8531 45.9999 68.6101 45.9828 68.3645C45.9594 68.0838 45.9478 67.7641 45.9478 67.4054C45.9623 66.9531 46.017 66.503 46.1112 66.0604C46.2209 65.4912 46.3726 64.8479 46.5664 64.1306C46.7602 63.4132 46.9975 62.6374 47.2784 61.8031C47.5585 60.9688 47.8698 60.1228 48.2122 59.2651C48.6324 58.1891 48.9981 57.2573 49.3094 56.4698C49.6207 55.6822 49.8813 55 50.0915 54.423C50.3016 53.8467 50.4728 53.3711 50.605 52.9961C50.7373 52.621 50.8424 52.3013 50.9202 52.037C51.0013 51.806 51.0948 51.5795 51.2003 51.3586C51.3306 51.0823 51.4752 50.8129 51.6334 50.5516C51.7956 50.2791 51.9637 50.0218 52.1341 49.7797C52.2694 49.58 52.4259 49.3957 52.601 49.23C53.1307 49.3038 53.6488 49.4449 54.1429 49.6499C54.6246 49.8526 54.9199 50.0475 55.0289 50.2347C54.7446 50.5209 54.494 50.8387 54.2818 51.182C54.0017 51.6109 53.7293 52.0787 53.4648 52.5855C53.2002 53.0924 52.9594 53.6113 52.7423 54.1423C52.5498 54.5995 52.3857 55.0683 52.2508 55.5458C52.4329 55.2429 52.6362 54.9533 52.859 54.6791C53.1072 54.3672 53.4881 53.9384 54.0017 53.3926C54.4881 52.8754 55.0326 52.4162 55.6242 52.0241C56.1307 51.7048 56.5696 51.5446 56.9443 51.5446C57.5349 51.5446 58.0213 51.7083 58.4034 52.0358C58.5876 52.1895 58.7346 52.383 58.8335 52.6018C58.9323 52.8205 58.9804 53.0589 58.9741 53.299C58.9722 54.4335 58.7829 55.5598 58.4139 56.6323C58.0514 57.7116 57.5065 58.7204 56.8031 59.6148C56.5253 59.9726 56.2124 60.3017 55.8693 60.5972C55.5189 60.9041 55.1442 61.1818 54.7487 61.4276C54.3872 61.6559 54.004 61.8479 53.6048 62.0007C53.2854 62.1302 52.9455 62.2015 52.601 62.2113C52.3453 62.2172 52.0923 62.1568 51.8668 62.0358C51.6792 61.9428 51.5271 61.7908 51.4338 61.6031C52.0978 61.1975 52.6964 60.6931 53.2091 60.1072C53.8151 59.4264 54.3505 58.6858 54.8071 57.8967C55.3111 57.0343 55.7406 56.1305 56.0911 55.1949C56.454 54.239 56.7313 53.2527 56.9198 52.2475C56.3589 52.5407 55.824 52.8811 55.3207 53.2651C54.7935 53.6851 54.3195 54.1682 53.9095 54.7037C53.3484 55.3906 52.9045 55.9442 52.5777 56.3645C52.2508 56.7855 51.9835 57.1446 51.7723 57.4405C51.582 57.705 51.4104 57.9825 51.2587 58.2709C51.1272 58.5282 50.9832 58.844 50.8268 59.2183C50.6097 59.7181 50.3568 60.377 50.0681 61.1949C49.7794 62.0128 49.4841 62.929 49.1822 63.9434C48.8779 64.9571 48.574 66.037 48.2706 67.1832C47.9671 68.3294 47.6753 69.4717 47.3951 70.6101C47.2247 70.5785 47.0765 70.4545 46.9516 70.2358L46.6831 69.9317C46.6292 69.8697 46.5611 69.8216 46.4847 69.7914Z" fill="white"/>
<path d="M59.791 61.6508C59.7995 61.0045 59.8541 60.3596 59.9544 59.721C60.0634 58.9803 60.2229 58.1889 60.433 57.3467C60.6431 56.5046 60.8921 55.6236 61.18 54.7035C61.4687 53.7826 61.7917 52.8625 62.1488 51.9432C62.4601 51.1159 62.8219 50.2816 63.2344 49.4403C63.6468 48.599 64.0942 47.7725 64.5767 46.9608C65.0592 46.1506 65.5611 45.3787 66.0824 44.645C66.6038 43.9113 67.129 43.2407 67.6582 42.6333C67.9292 42.636 68.1992 42.6674 68.4636 42.7269C68.7493 42.7881 69.0302 42.8702 69.304 42.9725C69.5644 43.0682 69.8146 43.1897 70.051 43.3351C70.2492 43.4542 70.4332 43.5955 70.5996 43.7561C69.4777 44.9045 68.4253 46.1192 67.4481 47.3935C66.6063 48.4741 65.8641 49.629 65.2303 50.8438C64.9354 51.4364 64.667 51.99 64.425 52.5046C64.1829 53.0193 63.9612 53.53 63.7596 54.0368C63.5573 54.5436 63.3744 55.0505 63.211 55.5573C63.0476 56.0641 62.8959 56.5982 62.7558 57.1596C65.7439 53.339 67.9617 51.4286 69.4091 51.4286C69.8719 51.4454 70.3224 51.5824 70.7164 51.8263C71.1942 52.1016 71.6144 52.467 71.9536 52.9023C71.4129 53.5071 70.9137 54.1479 70.4596 54.8204C69.946 55.569 69.4752 56.3214 69.0472 57.0777C68.6566 57.7585 68.3058 58.4614 67.9967 59.183C67.7243 59.8294 67.5882 60.3089 67.5882 60.6216C67.5766 60.7317 67.6012 60.8426 67.6582 60.9374C67.7007 60.9707 67.7495 60.9952 67.8016 61.0092C67.8538 61.0233 67.9082 61.0267 67.9617 61.0193C68.1529 61.0272 68.3437 60.9953 68.522 60.9257C68.6031 60.8834 68.6895 60.852 68.7788 60.8321C68.8337 60.9131 68.8806 60.9993 68.9188 61.0894C68.9325 61.127 68.9403 61.1665 68.9422 61.2064C68.9422 61.2684 68.8488 61.3584 68.662 61.4754C68.4481 61.6068 68.2259 61.724 67.9967 61.8263C67.7399 61.9432 67.487 62.0485 67.238 62.1421C67.0601 62.219 66.8708 62.2664 66.6777 62.2824C66.5137 62.28 66.353 62.2357 66.2108 62.1538C66.0546 62.0675 65.9159 61.9524 65.8023 61.8146C65.6854 61.6741 65.5909 61.5163 65.5222 61.3468C65.4522 61.1761 65.4165 60.9932 65.4171 60.8087C65.4389 60.4547 65.5055 60.1049 65.6155 59.7678C65.747 59.3085 65.9299 58.7705 66.1641 58.1538C66.3984 57.537 66.6785 56.8625 67.0045 56.1304C67.3314 55.3974 67.6815 54.6489 68.0551 53.8848C68.0568 53.8721 68.0556 53.8591 68.0515 53.847C68.0474 53.8348 68.0406 53.8238 68.0316 53.8147C68.0225 53.8057 68.0115 53.7988 67.9994 53.7948C67.9873 53.7907 67.9744 53.7894 67.9617 53.7912C67.8311 53.8318 67.7086 53.8952 67.5998 53.9783C67.4049 54.1035 67.2228 54.2275 67.0512 54.3526C66.4414 54.819 65.875 55.3396 65.3587 55.9082C64.7686 56.5508 64.2153 57.2263 63.7013 57.9315C63.1546 58.6799 62.6481 59.4568 62.1839 60.259C61.7208 61.0533 61.3114 61.8778 60.9583 62.7269C60.9082 62.8407 60.8369 62.9439 60.7482 63.031C60.6901 63.1048 60.6071 63.1548 60.5147 63.1713C60.468 63.1713 60.398 63.1163 60.3163 63.0076C60.2212 62.8818 60.1427 62.7442 60.0828 62.5982C60.0128 62.4345 59.9463 62.2672 59.8844 62.0953C59.8282 61.9535 59.7967 61.8032 59.791 61.6508Z" fill="white"/>
<path d="M79.9389 52.5982C80.1244 52.6029 80.3086 52.6304 80.4875 52.68C80.6848 52.7304 80.8765 52.8009 81.0594 52.8906C81.2122 52.9651 81.357 53.0552 81.4913 53.1596C81.608 53.2531 81.6664 53.3385 81.6664 53.4169C81.3551 54.0718 81.0672 54.7307 80.8026 55.3935C80.5381 56.0562 80.3124 56.6917 80.1256 57.2999C79.951 57.8609 79.8068 58.4309 79.6938 59.0075C79.6005 59.4618 79.5497 59.9239 79.542 60.3876C79.5327 60.7553 79.58 61.1221 79.6821 61.4753C79.7532 61.734 79.9202 61.9558 80.149 62.0952C79.9259 62.2354 79.6815 62.3382 79.4253 62.3993C79.1668 62.4722 78.9001 62.5115 78.6316 62.5163C77.7912 62.5163 77.371 61.9393 77.371 60.7853C77.371 59.8964 77.6667 58.68 78.2581 57.1362C77.9547 57.8357 77.5956 58.5096 77.1842 59.1514C76.8122 59.7356 76.3987 60.2922 75.9469 60.8169C75.5705 61.2558 75.1434 61.6484 74.6746 61.9865C74.3265 62.2533 73.924 62.4401 73.4957 62.5338C72.9207 62.5338 72.4538 62.2714 72.095 61.7467C71.7363 61.2219 71.5573 60.5525 71.5581 59.7385C71.5726 58.7878 71.7626 57.848 72.1184 56.9666C72.484 56.0105 72.9662 55.1034 73.5541 54.266C74.0892 53.4879 74.7295 52.7881 75.4567 52.1865C76.1422 51.6313 76.8037 51.3533 77.441 51.3525C77.6301 51.417 77.8074 51.5118 77.9662 51.6332C78.168 51.7786 78.3556 51.9426 78.5265 52.1233C78.6963 52.2984 78.8488 52.4895 78.9817 52.6941C79.0884 52.8434 79.1602 53.0149 79.1918 53.1958C78.5693 53.2894 77.9273 53.5927 77.2659 54.1058C76.5849 54.6392 75.98 55.2637 75.4683 55.9619C74.9349 56.6784 74.4919 57.4582 74.1494 58.2835C73.828 59.0121 73.6534 59.7971 73.6358 60.5935C73.6358 60.889 73.7447 61.0757 73.9626 61.1537C74.4147 61.0601 74.9361 60.6742 75.5267 59.9958C76.1173 59.3175 76.8332 58.2687 77.6744 56.8496C77.8301 56.5689 78.0052 56.257 78.1997 55.9139C78.3942 55.5709 78.5927 55.2122 78.795 54.8379C78.9973 54.4636 79.1957 54.0855 79.3903 53.7034C79.5848 53.3213 79.7677 52.9529 79.9389 52.5982Z" fill="white"/>
<path d="M97.2597 72.212C97.3764 72.5629 96.5675 72.4577 96.1636 72.4577C95.8454 72.4698 95.5289 72.4056 95.2404 72.2705C94.9999 72.1465 94.7081 72.0179 94.6462 71.7571C93.8292 68.3653 93.5222 66.9618 93.5012 65.6296C93.479 64.1524 93.416 63.1957 93.758 61.0927C93.9459 59.9419 94.2961 59.1044 94.435 58.5805C94.5708 58.072 94.7388 57.5728 94.938 57.0857C95.1318 56.6109 95.3376 56.1672 95.5555 55.7547C95.7734 55.3423 95.9601 54.9723 96.1158 54.6448C95.8675 54.6448 95.5641 54.7972 95.2053 55.1021C94.7918 55.4628 94.4056 55.8537 94.0498 56.2717C93.6374 56.7489 93.2094 57.276 92.7658 57.853C92.3223 58.43 91.8943 59.0042 91.4819 59.5758C91.0694 60.145 90.6846 60.6795 90.3274 61.1793C89.9703 61.6791 89.6664 62.0775 89.4158 62.3746C89.0778 62.2367 88.7747 62.025 88.5287 61.7547C88.2705 61.4641 88.0866 61.1149 87.993 60.7372C88.0754 60.2297 88.1841 59.7269 88.3186 59.2308C88.4695 58.6795 88.6531 58.1378 88.8684 57.6085C89.1143 57.005 89.3945 56.4162 89.7076 55.8448C90.0792 55.1723 90.4884 54.5213 90.9332 53.8951C90.6998 53.8951 90.3811 54.0553 89.9773 54.3758C89.5094 54.7537 89.0719 55.1678 88.6688 55.6144C88.2019 56.122 87.7195 56.692 87.2214 57.3243C86.7234 57.9567 86.2565 58.5773 85.8207 59.1863C85.2449 59.9988 84.7663 60.7095 84.385 61.3185C84.0037 61.9274 83.7279 62.2873 83.5575 62.398C83.1994 62.156 82.9096 61.8257 82.7159 61.4389C82.5534 61.0725 82.4358 60.6876 82.3657 60.2927C82.3938 59.8216 82.4523 59.3528 82.5408 58.8892C82.6481 58.3036 82.7927 57.7254 82.9738 57.1582C83.3431 55.9915 83.8072 54.8571 84.3617 53.7664C84.9298 52.6436 85.4787 51.6144 86.0087 50.6787C86.422 50.7642 86.8195 50.9142 87.1864 51.1232C87.5927 51.3703 87.9655 51.6691 88.2953 52.012C88.1145 52.5493 87.8717 53.0635 87.5716 53.5442C87.2448 54.0822 86.9024 54.6475 86.5444 55.2401C86.1865 55.8327 85.8596 56.4409 85.5639 57.0647C85.2765 57.6637 85.0798 58.3023 84.9803 58.9594C85.4169 58.3356 85.9347 57.6183 86.5339 56.8074C87.1331 55.9965 87.7475 55.2323 88.377 54.515C88.9499 53.8537 89.5786 53.2433 90.2562 52.6904C90.8788 52.1914 91.4391 51.9419 91.9371 51.9419C92.1431 51.9449 92.3477 51.9764 92.5452 52.0354C92.7539 52.0944 92.9567 52.1727 93.151 52.2694C93.3125 52.3483 93.4685 52.4382 93.6179 52.5384C93.7042 52.5853 93.777 52.6538 93.8292 52.7372C93.6952 53.1818 93.5108 53.6096 93.2794 54.012C92.9923 54.5501 92.6849 55.1154 92.3573 55.708C92.0297 56.3005 91.7262 56.8736 91.4468 57.4272C91.1667 57.9809 91.0033 58.4214 90.9566 58.7489C91.72 57.7048 92.4359 56.7575 93.1043 55.9068C93.697 55.1456 94.3285 54.4155 94.9964 53.7196C95.4914 53.1925 96.0429 52.7218 96.641 52.3161C97.1476 51.9887 97.6262 51.8249 98.0767 51.8249C98.3856 51.8241 98.6886 51.9091 98.9522 52.0705C99.2227 52.2311 99.4259 52.4846 99.5241 52.784C99.3396 53.3628 99.1093 53.926 98.8355 54.4682C98.5164 55.1232 98.1935 55.8132 97.8666 56.5384C97.5398 57.2635 97.248 57.977 96.9912 58.6787C96.7344 59.3805 96.3831 61.0261 96.2804 61.5781C95.906 63.585 95.8666 65.6402 96.1636 67.66" fill="white"/>
<path d="M139.336 71.7856C141.019 72.5096 134.784 65.7037 121.594 64.4172C105.369 62.8347 77.2892 71.1154 80.5073 70.616C115.174 65.2359 126.263 66.1715 139.336 71.7856Z" fill="white"/>
</svg>
