<svg width="402" height="128" viewBox="0 0 402 128" fill="none" xmlns="http://www.w3.org/2000/svg">
<path d="M2.41923 116.541C1.48965 116.275 0.956545 115.275 0.819939 113.543C0.527881 112.532 0.343615 111.494 0.270197 110.444C0.170241 109.245 0.120239 107.879 0.120239 106.346C0.182703 104.413 0.416866 102.49 0.819939 100.599C1.28973 98.1663 1.93945 95.4175 2.76908 92.3522C3.59871 89.2869 4.61491 85.9717 5.81771 82.4067C7.01717 78.8416 8.34991 75.2266 9.81592 71.5615C11.6151 66.9636 13.1811 62.982 14.5138 59.6169C15.8466 56.2517 16.9627 53.3363 17.8623 50.8708C18.7619 48.4085 19.4949 46.3761 20.0613 44.7735C20.6278 43.1709 21.0776 41.8048 21.4107 40.6753C21.758 39.6881 22.1583 38.7205 22.6102 37.7766C23.1682 36.5958 23.7871 35.4448 24.4644 34.3282C25.1591 33.1637 25.8787 32.0642 26.6084 31.0296C27.1875 30.1764 27.8578 29.3887 28.6075 28.6807C30.8754 28.9962 33.0939 29.5992 35.2096 30.4749C37.272 31.3412 38.5364 32.1741 39.0029 32.9738C37.7859 34.1968 36.7127 35.555 35.8043 37.0219C34.6049 38.8545 33.4387 40.8536 32.3059 43.0193C31.173 45.185 30.1418 47.4023 29.2123 49.6713C28.3882 51.6252 27.6855 53.6281 27.1082 55.6686C27.8879 54.3744 28.758 53.1369 29.712 51.9653C30.7749 50.6325 32.4058 48.8 34.6048 46.4677C36.6876 44.2577 39.0187 42.2955 41.5518 40.6203C43.7208 39.2559 45.5999 38.5713 47.2042 38.5713C49.7331 38.5713 51.8155 39.271 53.4514 40.6703C54.2401 41.3269 54.8697 42.1537 55.293 43.0886C55.7163 44.0234 55.9222 45.0421 55.8954 46.0679C55.887 50.9156 55.0764 55.7285 53.4964 60.3116C51.9443 64.9233 49.6114 69.2341 46.5995 73.0559C45.41 74.585 44.0706 75.9913 42.6013 77.254C41.1011 78.5652 39.4965 79.7519 37.8034 80.8024C36.2553 81.7778 34.6148 82.5981 32.9056 83.2513C31.5379 83.8045 30.0823 84.1091 28.6075 84.1509C27.5125 84.1764 26.4296 83.9182 25.4639 83.4012C24.6607 83.0036 24.0095 82.3542 23.6097 81.5521C26.4529 79.8189 29.016 77.6635 31.2114 75.1599C33.806 72.2511 36.0984 69.0863 38.0533 65.7141C40.2111 62.0294 42.0503 58.167 43.5509 54.1693C45.1048 50.0847 46.2923 45.87 47.0993 41.5749C44.6979 42.8277 42.4073 44.2822 40.2523 45.923C37.995 47.7178 35.9657 49.7823 34.21 52.0702C31.8078 55.0056 29.907 57.3712 28.5076 59.167C27.1082 60.9662 25.9637 62.5006 25.0591 63.765C24.2446 64.8953 23.5098 66.081 22.8601 67.3134C22.297 68.4129 21.6806 69.7623 21.0109 71.3616C20.0814 73.4973 18.9985 76.3127 17.7624 79.8079C16.5263 83.303 15.2618 87.2179 13.9691 91.5526C12.6663 95.884 11.3652 100.499 10.0658 105.396C8.76639 110.294 7.51695 115.175 6.31748 120.04C5.58781 119.905 4.9531 119.375 4.41834 118.441L3.26886 117.141C3.03781 116.876 2.74641 116.67 2.41923 116.541Z" fill="#FFCBF0"/>
<path d="M59.3938 81.7573C59.4301 78.9954 59.6639 76.2396 60.0935 73.511C60.5599 70.3458 61.243 66.964 62.1426 63.3656C63.0422 59.7672 64.1083 56.0022 65.3411 52.0706C66.5772 48.1357 67.96 44.2041 69.4893 40.2759C70.822 36.7408 72.3713 33.1757 74.1372 29.5807C75.9031 25.9856 77.8189 22.4538 79.8846 18.9854C81.9504 15.5236 84.0994 12.2251 86.3318 9.08982C88.5641 5.95455 90.8131 3.08916 93.0787 0.493652C94.2391 0.50524 95.395 0.639249 96.5272 0.893468C97.7507 1.15513 98.9533 1.5059 100.126 1.94299C101.241 2.35208 102.312 2.87109 103.324 3.49231C104.172 4.00158 104.96 4.60514 105.673 5.2915C100.869 10.1989 96.3633 15.3892 92.1791 20.8346C88.575 25.4521 85.3968 30.3868 82.6834 35.578C81.4206 38.1102 80.2711 40.4758 79.2349 42.6748C78.1987 44.8738 77.2492 47.0562 76.3862 49.2219C75.5199 51.3876 74.7369 53.5533 74.0373 55.719C73.3376 57.8847 72.6878 60.167 72.0881 62.5659C84.8824 46.2399 94.3782 38.0769 100.575 38.0769C102.557 38.1484 104.486 38.7339 106.173 39.7761C108.219 40.9526 110.018 42.514 111.471 44.374C109.155 46.9583 107.018 49.6968 105.073 52.5704C102.874 55.769 100.859 58.9842 99.0261 62.2161C97.3536 65.125 95.8517 68.1287 94.5281 71.2121C93.362 73.9742 92.7789 76.0232 92.7789 77.3593C92.7294 77.8298 92.8346 78.3035 93.0787 78.7087C93.2608 78.8512 93.4697 78.9556 93.6929 79.0156C93.9162 79.0758 94.1492 79.0903 94.3782 79.0586C95.1968 79.0924 96.0136 78.9562 96.7771 78.6587C97.1246 78.4781 97.4943 78.3437 97.8766 78.2589C98.112 78.6049 98.3128 78.9732 98.4764 79.3584C98.5348 79.519 98.5684 79.6875 98.5763 79.8582C98.5763 80.1231 98.1765 80.5079 97.3768 81.0077C96.4609 81.569 95.5093 82.0698 94.5281 82.507C93.4286 83.0068 92.3457 83.4566 91.2796 83.8564C90.5178 84.1852 89.7075 84.3878 88.8806 84.4562C88.1784 84.4457 87.4904 84.2565 86.8815 83.9064C86.2124 83.5377 85.6189 83.046 85.1323 82.457C84.6316 81.8566 84.227 81.1823 83.9328 80.4579C83.6332 79.7286 83.4804 78.9474 83.483 78.1589C83.5762 76.6462 83.8617 75.1515 84.3326 73.711C84.8957 71.7485 85.6787 69.4495 86.6816 66.814C87.6845 64.1785 88.884 61.2965 90.28 58.1679C91.6794 55.0359 93.1787 51.8374 94.778 48.5722C94.7854 48.5179 94.7802 48.4627 94.7628 48.4108C94.7453 48.3589 94.7161 48.3117 94.6774 48.273C94.6386 48.2342 94.5915 48.205 94.5396 48.1876C94.4877 48.1701 94.4324 48.1649 94.3782 48.1723C93.8189 48.3461 93.2944 48.6167 92.8288 48.972C91.9942 49.5068 91.2146 50.0365 90.4799 50.5713C87.869 52.5641 85.4435 54.7888 83.2332 57.2183C80.7065 59.9643 78.3371 62.851 76.1363 65.8644C73.7958 69.0621 71.627 72.382 69.6392 75.81C67.6566 79.2041 65.9035 82.727 64.3916 86.3553C64.1773 86.8418 63.872 87.2829 63.492 87.6547C63.2435 87.9703 62.8878 88.1837 62.4924 88.2544C62.2925 88.2544 61.9926 88.0196 61.6428 87.5548C61.2356 87.0172 60.8996 86.4293 60.6432 85.8056C60.3434 85.1059 60.0585 84.3912 59.7936 83.6565C59.5532 83.0508 59.418 82.4085 59.3938 81.7573Z" fill="#FFCBF0"/>
<path d="M145.66 43.0746C146.455 43.0948 147.243 43.2122 148.009 43.4244C148.854 43.6395 149.675 43.941 150.458 44.324C151.112 44.6425 151.732 45.0277 152.307 45.4735C152.807 45.8733 153.057 46.2382 153.057 46.573C151.724 49.3718 150.491 52.1872 149.359 55.0192C148.226 57.8513 147.259 60.5667 146.46 63.1656C145.712 65.5627 145.095 67.9985 144.611 70.4623C144.211 72.4037 143.994 74.378 143.961 76.3597C143.921 77.9306 144.123 79.4983 144.561 81.0076C144.865 82.1131 145.58 83.0606 146.56 83.6564C145.605 84.2556 144.558 84.6946 143.461 84.9559C142.354 85.2673 141.212 85.4352 140.063 85.4557C136.464 85.4557 134.665 82.9901 134.665 78.059C134.665 74.2607 135.931 69.063 138.463 62.4659C137.165 65.4552 135.627 68.3349 133.866 71.0771C132.273 73.5734 130.502 75.9518 128.568 78.1939C126.956 80.0693 125.127 81.747 123.12 83.1916C121.629 84.3318 119.906 85.1303 118.073 85.5306C115.61 85.5306 113.611 84.4094 112.075 82.1671C110.539 79.9248 109.773 77.0644 109.776 73.586C109.838 69.5235 110.652 65.5077 112.175 61.7412C113.741 57.6558 115.805 53.7798 118.322 50.2014C120.614 46.8767 123.355 43.8862 126.469 41.3154C129.404 38.9431 132.236 37.7553 134.965 37.752C135.775 38.0276 136.534 38.4327 137.214 38.9514C138.078 39.5724 138.881 40.2735 139.613 41.0455C140.34 41.7936 140.993 42.6104 141.562 43.4844C142.019 44.1227 142.326 44.8554 142.462 45.6284C139.796 46.0283 137.047 47.3243 134.215 49.5167C131.299 51.7962 128.71 54.4649 126.519 57.4481C124.235 60.5097 122.338 63.8419 120.871 67.3687C119.495 70.4819 118.748 73.8364 118.672 77.2393C118.672 78.5021 119.139 79.3001 120.072 79.6332C122.007 79.2334 124.24 77.5842 126.769 74.6855C129.298 71.7868 132.363 67.3054 135.965 61.2415C136.631 60.042 137.381 58.7093 138.214 57.2432C139.046 55.7772 139.896 54.2446 140.762 52.6453C141.629 51.046 142.478 49.4301 143.311 47.7975C144.144 46.1648 144.927 44.5906 145.66 43.0746Z" fill="#FFCBF0"/>
<path d="M219.822 126.887C220.322 128.386 216.859 127.937 215.129 127.937C213.767 127.988 212.412 127.714 211.176 127.137C210.147 126.607 208.897 126.057 208.632 124.943C205.134 110.449 203.819 104.452 203.729 98.7595C203.634 92.4473 203.365 88.3592 204.829 79.3732C205.634 74.4554 207.133 70.877 207.728 68.638C208.309 66.4653 209.029 64.3319 209.882 62.2508C210.711 60.2217 211.593 58.3259 212.526 56.5634C213.458 54.8008 214.258 53.2199 214.924 51.8205C213.862 51.8205 212.562 52.4719 211.026 53.7746C209.256 55.3159 207.602 56.9864 206.078 58.7724C204.313 60.8115 202.48 63.0638 200.581 65.5294C198.682 67.9949 196.849 70.4488 195.083 72.8911C193.317 75.3233 191.67 77.6073 190.141 79.743C188.611 81.8787 187.31 83.5813 186.237 84.8507C184.79 84.2616 183.492 83.3566 182.439 82.2019C181.333 80.96 180.546 79.4678 180.145 77.8539C180.498 75.6855 180.964 73.5369 181.539 71.4167C182.186 69.0614 182.972 66.7466 183.893 64.4848C184.946 61.9061 186.146 59.3897 187.487 56.9482C189.078 54.0744 190.83 51.2929 192.734 48.6169C191.735 48.6169 190.37 49.3016 188.641 50.671C186.638 52.2857 184.765 54.0554 183.039 55.9636C181.04 58.1327 178.974 60.5682 176.841 63.2704C174.709 65.9725 172.71 68.6246 170.844 71.2268C168.379 74.6986 166.329 77.7356 164.697 80.3378C163.064 82.9399 161.883 84.4776 161.153 84.9507C159.62 83.9166 158.38 82.5053 157.55 80.8525C156.854 79.2865 156.351 77.6419 156.051 75.9547C156.171 73.9415 156.421 71.9382 156.8 69.9574C157.26 67.4547 157.879 64.9841 158.655 62.5607C160.236 57.5751 162.223 52.7276 164.597 48.0672C167.029 43.2693 169.38 38.8713 171.649 34.873C173.419 35.2383 175.12 35.8791 176.692 36.7722C178.431 37.8282 180.027 39.1049 181.439 40.5705C180.666 42.8663 179.626 45.0636 178.341 47.1176C176.941 49.4166 175.475 51.8321 173.943 54.3643C172.41 56.8965 171.011 59.4954 169.745 62.1609C168.514 64.7205 167.672 67.4492 167.246 70.2572C169.115 67.5918 171.332 64.5265 173.898 61.0614C176.463 57.5962 179.094 54.331 181.789 51.2657C184.242 48.4403 186.934 45.8318 189.836 43.4692C192.501 41.3368 194.9 40.2706 197.032 40.2706C197.915 40.2837 198.791 40.4183 199.636 40.6705C200.53 40.9224 201.398 41.257 202.23 41.67C202.922 42.0073 203.59 42.3913 204.229 42.8195C204.599 43.0202 204.91 43.3128 205.134 43.6691C204.56 45.5691 203.771 47.3969 202.78 49.1167C201.55 51.4157 200.234 53.8312 198.832 56.3634C197.429 58.8957 196.13 61.3446 194.933 63.7102C193.734 66.0758 193.034 67.9583 192.834 69.3576C196.103 64.8963 199.168 60.8481 202.03 57.2131C204.568 53.9603 207.272 50.8409 210.132 47.8672C212.251 45.6149 214.612 43.6036 217.173 41.8699C219.342 40.4705 221.392 39.7709 223.321 39.7709C224.643 39.7674 225.941 40.1307 227.069 40.8204C228.227 41.5067 229.098 42.5899 229.518 43.869C228.728 46.3425 227.742 48.749 226.569 51.0658C225.203 53.8646 223.82 56.8133 222.421 59.9119C221.022 63.0105 219.772 66.0591 218.673 69.0578C217.573 72.0565 216.069 79.0883 215.629 81.4473C214.026 90.0228 213.857 98.8048 215.129 107.436" fill="#FFCBF0"/>
<path d="M399.982 125.063C407.188 128.156 380.49 99.0742 324.016 93.5767C254.547 86.8147 134.315 122.199 148.094 120.065C296.528 97.0751 344.007 101.073 399.982 125.063Z" fill="#FFCBF0"/>
</svg>
