<svg width="100" height="100" viewBox="0 0 100 100" fill="none" xmlns="http://www.w3.org/2000/svg">
<path fill-rule="evenodd" clip-rule="evenodd" d="M49.9997 95.8334C75.3122 95.8334 95.833 75.3125 95.833 50C95.833 24.6875 75.3122 4.16671 49.9997 4.16671C24.6872 4.16671 4.16634 24.6875 4.16634 50C4.16634 75.3125 24.6872 95.8334 49.9997 95.8334ZM40.8038 63.7209C40.0449 64.5067 39.6249 65.5592 39.6344 66.6517C39.6439 67.7442 40.0821 68.7893 40.8546 69.5618C41.6271 70.3343 42.6722 70.7725 43.7647 70.782C44.8572 70.7915 45.9097 70.3715 46.6955 69.6125L63.3622 52.9459C64.1433 52.1645 64.5821 51.1049 64.5821 50C64.5821 48.8952 64.1433 47.8356 63.3622 47.0542L46.6955 30.3875C45.9097 29.6285 44.8572 29.2086 43.7647 29.2181C42.6722 29.2276 41.6271 29.6658 40.8546 30.4383C40.0821 31.2108 39.6439 32.2559 39.6344 33.3484C39.6249 34.4409 40.0449 35.4934 40.8038 36.2792L54.5247 50L40.8038 63.7209Z" fill="#6FA4FF"/>
</svg>
