<svg width="304" height="94" viewBox="0 0 304 94" fill="none" xmlns="http://www.w3.org/2000/svg">
<path d="M215.878 35.796C216.796 33.3525 217.811 30.9209 218.924 28.5012C220.032 26.0755 221.123 22.6665 222.19 20.6401C224.18 16.802 226.395 13.0846 228.823 9.50715C231.127 6.19503 233.911 3.24435 237.083 0.752144C237.828 0.686586 238.585 0.269392 239.771 0.114436C241.357 -0.0381454 242.953 -0.0381454 244.539 0.114436C245.588 0.234172 246.61 0.530375 247.561 0.990534C248.157 1.35408 249.307 2.49838 249.104 3.43407C245.135 7.86224 242.155 10.2462 238.681 16.4146C237.191 19.0548 232.619 27.5297 230.051 35.1821L228.179 40.6414C226.638 44.6146 225.299 48.5461 224.162 52.4359C223.026 56.3257 222.104 60.0625 221.397 63.6463C220.726 66.9803 220.222 70.3459 219.889 73.7304C219.601 76.5245 219.56 79.3384 219.764 82.1397C220.062 85.6322 221.453 87.4718 223.936 87.6586C226.119 87.1715 228.226 86.3916 230.2 85.3402C232.079 84.3446 233.795 83.0685 235.289 81.5557C235.802 82.2292 236.285 82.7894 236.231 83.2662C236.13 84.1065 235.146 84.9051 234.145 85.9421C233.144 86.9791 232.041 88.0042 230.849 89.0174C229.742 89.9656 228.573 90.8397 227.351 91.6338C226.556 92.1958 225.68 92.632 224.752 92.927C222.881 93.082 220.98 93.4456 219.049 92.8138C217.159 92.2031 215.356 91.3497 213.685 90.2749C212.052 89.2141 210.705 87.4023 209.591 86.0196C208.575 84.826 207.938 83.357 207.761 81.8C207.605 79.3832 207.642 76.9577 207.874 74.5469C208.112 71.6147 207.94 68.4023 208.542 64.9158C209.144 61.4293 209.889 57.764 210.765 53.9437C211.641 50.1235 212.63 46.3211 213.745 42.5545L215.878 35.796Z" fill="#FFCBF0"/>
<path d="M273.146 88.3504C271.81 87.2398 270.854 85.7396 270.411 84.0593C269.99 82.6294 269.755 81.151 269.714 79.6609C269.685 78.3532 269.867 77.0495 270.25 75.799C269.964 75.799 269.322 76.3691 268.325 77.5094C267.328 78.6497 266.235 80.0046 265.047 81.574C263.855 83.1435 262.695 84.6771 261.566 86.1751C260.438 87.673 259.58 88.7855 258.992 89.5126C258.2 90.3864 257.319 91.1754 256.363 91.8667C255.778 92.3245 255.101 92.6516 254.379 92.8262C253.163 92.8128 251.957 92.6118 250.803 92.2302C249.552 91.8362 248.361 91.2727 247.263 90.5555C246.167 89.851 245.19 88.9781 244.366 87.9689C243.546 86.9646 242.976 85.7799 242.703 84.5122C242.703 82.5256 242.759 80.8807 242.87 79.5775C242.993 78.1712 243.225 76.7764 243.562 75.4056C244.334 72.2789 245.283 69.1986 246.405 66.1798C247.666 62.7256 249.117 59.3432 250.749 56.048C252.35 52.7996 254.2 49.6793 256.28 46.7149C258.045 44.0975 260.237 41.7948 262.764 39.9028C263.518 39.9105 264.27 39.9642 265.017 40.0637C265.912 40.1812 266.793 40.3807 267.651 40.6597C268.53 40.9415 269.388 41.2819 270.22 41.6789C271.016 42.0529 271.729 42.5817 272.318 43.2344C271.674 43.9496 270.045 46.3454 267.431 50.4219C264.816 54.4985 261.902 60.363 258.688 68.0154C258.33 68.81 257.901 69.9543 257.4 71.4483C256.9 72.9422 256.387 74.4997 255.863 76.1208C255.358 77.7657 254.945 79.3749 254.623 80.9483C254.343 82.1816 254.181 83.4389 254.14 84.703C254.112 85.1484 254.204 85.5934 254.409 85.9903C254.546 86.2234 254.71 86.4394 254.897 86.6339C255.966 86.2048 257.323 85.0248 258.968 83.0938C260.613 81.1628 262.901 78.1948 265.834 74.1898C266.549 73.1885 267.389 72.0443 268.355 70.7569C269.32 69.4696 270.313 68.0929 271.335 66.6267C272.328 65.1606 273.274 63.6409 274.171 62.0675C275.035 60.5573 275.772 58.9786 276.377 57.3473C276.659 56.4891 277.032 55.4699 277.497 54.2899C278.001 53.0257 278.574 51.7901 279.213 50.5888C279.937 49.2414 280.732 47.9342 281.597 46.6732C282.512 45.3246 283.576 44.0831 284.768 42.9721C285.769 42.9827 286.767 43.0904 287.748 43.294C288.781 43.4992 289.8 43.7679 290.799 44.0985C291.671 44.3787 292.514 44.7378 293.32 45.1713C293.928 45.4806 294.473 45.8987 294.93 46.405C293.642 49.5518 292.212 52.6629 290.639 55.7381C289.065 58.8134 287.605 61.835 286.258 64.803C284.934 67.6804 283.788 70.636 282.825 73.6534C281.923 76.4256 281.455 79.3204 281.437 82.2356C281.416 83.5504 281.54 84.8634 281.806 86.1512C282.009 87.0984 282.278 88.0304 282.611 88.9404C282.847 89.5801 283.118 90.2068 283.421 90.8178C283.638 91.2143 283.764 91.6539 283.791 92.1051C283.791 92.1766 283.719 92.2839 283.576 92.4269C283.549 92.4582 283.516 92.4837 283.48 92.5022C283.443 92.5206 283.403 92.5315 283.362 92.5342C282.709 92.5101 282.062 92.402 281.437 92.2124C280.541 91.962 279.661 91.6575 278.802 91.3005C277.837 90.9032 276.871 90.4562 275.906 89.9595C274.958 89.473 274.037 88.9358 273.146 88.3504Z" fill="#FFCBF0"/>
<path d="M1.37756 15.6105C-7.2225 11.9273 24.6209 46.6017 91.9672 53.1575C174.809 61.2271 318.179 19.0255 301.754 21.5704C124.746 48.9856 68.1278 44.2178 1.37756 15.6105Z" fill="#FFCBF0"/>
</svg>
