<svg width="1085" height="354" viewBox="0 0 1085 354" fill="none" xmlns="http://www.w3.org/2000/svg">
<path d="M330.402 54.7676C331.805 51.032 333.357 47.3147 335.058 43.6156C336.752 39.9074 338.419 34.6958 340.05 31.598C343.093 25.7305 346.479 20.0475 350.191 14.5785C353.713 9.51509 357.969 5.00424 362.819 1.19427C363.958 1.09405 365.115 0.456267 366.928 0.219378C369.352 -0.0138813 371.793 -0.0138813 374.217 0.219378C375.821 0.402425 377.383 0.855245 378.836 1.55871C379.747 2.11449 381.506 3.86383 381.196 5.29427C375.128 12.0638 370.573 15.7083 365.261 25.1383C362.983 29.1745 355.995 42.1305 352.068 53.8292L349.207 62.1749C346.85 68.249 344.803 74.2593 343.066 80.2058C341.329 86.1523 339.92 91.865 338.839 97.3438C337.812 102.441 337.043 107.586 336.534 112.76C336.094 117.031 336.03 121.333 336.342 125.616C336.798 130.955 338.924 133.767 342.72 134.053C346.057 133.308 349.278 132.116 352.296 130.508C355.168 128.986 357.792 127.035 360.077 124.723C360.86 125.752 361.598 126.609 361.516 127.338C361.361 128.622 359.858 129.843 358.327 131.428C356.797 133.014 355.111 134.581 353.289 136.13C351.596 137.579 349.809 138.916 347.941 140.13C346.726 140.989 345.386 141.656 343.968 142.107C341.107 142.344 338.201 142.899 335.249 141.934C332.359 141 329.603 139.695 327.049 138.052C324.552 136.431 322.493 133.661 320.789 131.547C319.237 129.722 318.264 127.477 317.992 125.096C317.754 121.402 317.811 117.694 318.165 114.008C318.53 109.525 318.266 104.614 319.186 99.2845C320.106 93.9545 321.245 88.3512 322.584 82.5109C323.924 76.6707 325.436 70.8578 327.14 65.0996L330.402 54.7676Z" fill="#FFCBF0"/>
<path d="M417.951 135.11C415.908 133.412 414.446 131.118 413.769 128.55C413.125 126.364 412.767 124.104 412.703 121.826C412.66 119.826 412.937 117.833 413.523 115.922C413.085 115.922 412.104 116.793 410.58 118.536C409.055 120.28 407.385 122.351 405.569 124.75C403.746 127.15 401.973 129.494 400.248 131.784C398.523 134.074 397.211 135.775 396.312 136.886C395.101 138.222 393.755 139.428 392.294 140.485C391.399 141.185 390.364 141.685 389.26 141.952C387.402 141.932 385.558 141.624 383.793 141.041C381.881 140.439 380.06 139.577 378.381 138.481C376.706 137.404 375.212 136.069 373.953 134.526C372.699 132.991 371.828 131.18 371.411 129.242C371.411 126.205 371.496 123.69 371.666 121.698C371.854 119.548 372.208 117.416 372.723 115.32C373.903 110.54 375.354 105.831 377.069 101.216C378.998 95.9357 381.215 90.7649 383.711 85.7274C386.159 80.7613 388.986 75.9912 392.166 71.4594C394.865 67.458 398.216 63.9378 402.079 61.0454C403.231 61.0571 404.381 61.1392 405.523 61.2914C406.891 61.471 408.239 61.776 409.55 62.2025C410.893 62.6332 412.205 63.1537 413.477 63.7605C414.693 64.3324 415.784 65.1408 416.684 66.1385C415.7 67.2319 413.21 70.8945 409.213 77.1265C405.216 83.3585 400.761 92.3238 395.847 104.023C395.3 105.237 394.644 106.987 393.879 109.271C393.114 111.554 392.33 113.935 391.528 116.414C390.757 118.928 390.125 121.388 389.633 123.794C389.205 125.679 388.958 127.601 388.895 129.534C388.851 130.215 388.993 130.895 389.305 131.502C389.515 131.858 389.766 132.188 390.052 132.486C391.686 131.83 393.761 130.026 396.275 127.074C398.79 124.122 402.289 119.584 406.771 113.462C407.865 111.931 409.149 110.182 410.625 108.214C412.101 106.246 413.62 104.141 415.181 101.9C416.699 99.6583 418.145 97.335 419.518 94.9296C420.838 92.621 421.965 90.2075 422.889 87.7136C423.32 86.4016 423.891 84.8436 424.602 83.0396C425.372 81.1069 426.248 79.2181 427.226 77.3816C428.331 75.3217 429.548 73.3234 430.87 71.3956C432.269 69.3339 433.895 67.436 435.717 65.7376C437.248 65.7537 438.774 65.9185 440.273 66.2296C441.852 66.5434 443.41 66.9542 444.938 67.4596C446.27 67.8879 447.56 68.4369 448.792 69.0996C449.72 69.5724 450.554 70.2116 451.252 70.9856C449.284 75.7963 447.097 80.5523 444.692 85.2536C442.286 89.955 440.054 94.5743 437.995 99.1116C435.972 103.51 434.219 108.029 432.747 112.642C431.368 116.88 430.652 121.305 430.624 125.762C430.593 127.772 430.783 129.779 431.189 131.748C431.5 133.196 431.911 134.62 432.419 136.012C432.781 136.99 433.195 137.948 433.658 138.882C433.99 139.488 434.183 140.16 434.223 140.85C434.223 140.959 434.114 141.123 433.895 141.342C433.854 141.389 433.804 141.428 433.748 141.457C433.691 141.485 433.63 141.501 433.567 141.506C432.569 141.469 431.58 141.303 430.624 141.014C429.255 140.631 427.91 140.165 426.597 139.62C425.121 139.012 423.645 138.329 422.169 137.57C420.72 136.826 419.312 136.005 417.951 135.11Z" fill="#FFCBF0"/>
<path d="M2.48387 23.9082C-10.6635 18.2776 38.0172 71.286 140.973 81.3082C267.617 93.6447 486.794 29.1289 461.684 33.0194C191.084 74.9305 104.528 67.6416 2.48387 23.9082Z" fill="#FFCBF0"/>
<path d="M357.261 332.966C355.567 332.48 354.595 330.658 354.346 327.5C353.813 325.657 353.478 323.764 353.344 321.851C353.161 319.664 353.07 317.174 353.07 314.38C353.184 310.856 353.611 307.35 354.346 303.902C355.202 299.468 356.387 294.457 357.899 288.869C359.412 283.28 361.264 277.237 363.457 270.737C365.644 264.238 368.073 257.648 370.746 250.966C374.026 242.584 376.881 235.326 379.31 229.191C381.74 223.056 383.775 217.741 385.415 213.246C387.055 208.758 388.391 205.052 389.424 202.131C390.456 199.209 391.276 196.719 391.884 194.66C392.517 192.86 393.247 191.096 394.07 189.375C395.088 187.223 396.216 185.124 397.451 183.089C398.717 180.966 400.029 178.961 401.359 177.075C402.415 175.52 403.637 174.084 405.004 172.793C409.138 173.368 413.183 174.467 417.039 176.064C420.799 177.643 423.104 179.162 423.955 180.619C421.736 182.849 419.78 185.325 418.124 187.999C415.937 191.34 413.811 194.985 411.746 198.933C409.681 202.881 407.801 206.923 406.106 211.06C404.604 214.622 403.323 218.273 402.27 221.993C403.692 219.634 405.278 217.378 407.017 215.242C408.955 212.812 411.928 209.471 415.937 205.219C419.734 201.19 423.984 197.613 428.601 194.559C432.556 192.072 435.981 190.824 438.906 190.824C443.516 190.824 447.313 192.099 450.295 194.651C451.733 195.848 452.881 197.355 453.652 199.059C454.424 200.763 454.799 202.62 454.75 204.491C454.735 213.328 453.257 222.102 450.377 230.457C447.547 238.865 443.294 246.723 437.804 253.691C435.635 256.478 433.193 259.042 430.515 261.344C427.78 263.734 424.855 265.898 421.768 267.813C418.946 269.591 415.955 271.086 412.839 272.277C410.346 273.286 407.692 273.841 405.004 273.917C403.007 273.964 401.033 273.493 399.273 272.551C397.808 271.826 396.621 270.642 395.893 269.179C401.076 266.02 405.748 262.09 409.751 257.526C414.481 252.223 418.66 246.454 422.224 240.306C426.157 233.589 429.51 226.548 432.246 219.26C435.079 211.813 437.244 204.13 438.715 196.3C434.337 198.583 430.161 201.235 426.233 204.226C422.117 207.498 418.418 211.262 415.217 215.433C410.838 220.784 407.373 225.097 404.821 228.371C402.27 231.651 400.184 234.448 398.535 236.753C397.05 238.814 395.71 240.975 394.526 243.222C393.499 245.226 392.376 247.686 391.155 250.602C389.46 254.495 387.486 259.628 385.233 266C382.979 272.371 380.674 279.508 378.317 287.411C375.942 295.307 373.57 303.72 371.201 312.649C368.833 321.577 366.555 330.476 364.368 339.344C363.038 339.098 361.881 338.132 360.906 336.429L358.81 334.06C358.389 333.576 357.858 333.201 357.261 332.966Z" fill="#FFCBF0"/>
<path d="M461.128 269.553C461.194 264.518 461.62 259.494 462.403 254.52C463.254 248.749 464.499 242.584 466.139 236.024C467.779 229.464 469.723 222.6 471.97 215.433C474.224 208.259 476.744 201.092 479.532 193.931C481.962 187.486 484.786 180.987 488.006 174.433C491.225 167.879 494.718 161.44 498.483 155.117C502.249 148.806 506.167 142.793 510.237 137.077C514.306 131.362 518.406 126.138 522.537 121.406C524.652 121.427 526.759 121.672 528.823 122.135C531.054 122.612 533.246 123.252 535.383 124.048C537.416 124.794 539.369 125.74 541.215 126.873C542.761 127.801 544.198 128.902 545.497 130.153C536.739 139.099 528.525 148.561 520.897 158.488C514.326 166.906 508.532 175.902 503.586 185.366C501.284 189.983 499.188 194.295 497.299 198.304C495.41 202.313 493.679 206.291 492.106 210.24C490.526 214.188 489.099 218.136 487.823 222.084C486.548 226.032 485.363 230.193 484.27 234.566C507.595 204.803 524.906 189.922 536.203 189.922C539.816 190.052 543.333 191.12 546.408 193.02C550.138 195.164 553.417 198.011 556.066 201.402C551.845 206.113 547.948 211.105 544.403 216.344C540.395 222.175 536.72 228.037 533.379 233.928C530.33 239.232 527.592 244.707 525.179 250.328C523.053 255.364 521.99 259.099 521.99 261.535C521.9 262.393 522.092 263.256 522.537 263.995C522.869 264.255 523.25 264.445 523.656 264.555C524.063 264.664 524.488 264.691 524.906 264.633C526.398 264.695 527.887 264.446 529.279 263.904C529.913 263.575 530.586 263.33 531.283 263.175C531.713 263.806 532.079 264.477 532.377 265.18C532.483 265.472 532.545 265.78 532.559 266.091C532.559 266.574 531.83 267.275 530.372 268.186C528.703 269.209 526.968 270.123 525.179 270.92C523.175 271.831 521.201 272.651 519.257 273.38C517.868 273.979 516.391 274.348 514.883 274.473C513.603 274.454 512.349 274.109 511.239 273.471C510.019 272.799 508.937 271.902 508.05 270.828C507.137 269.734 506.4 268.505 505.863 267.184C505.317 265.854 505.039 264.43 505.043 262.993C505.213 260.235 505.734 257.51 506.592 254.884C507.619 251.306 509.046 247.115 510.875 242.311C512.703 237.506 514.89 232.252 517.435 226.548C519.986 220.839 522.719 215.008 525.635 209.055C525.648 208.956 525.639 208.855 525.607 208.761C525.575 208.666 525.522 208.58 525.451 208.51C525.381 208.439 525.295 208.386 525.2 208.354C525.105 208.322 525.005 208.313 524.906 208.326C523.886 208.643 522.93 209.136 522.081 209.784C520.56 210.759 519.138 211.725 517.799 212.7C513.039 216.333 508.618 220.388 504.588 224.817C499.982 229.823 495.662 235.086 491.65 240.58C487.383 246.409 483.43 252.461 479.806 258.711C476.191 264.898 472.995 271.321 470.239 277.935C469.848 278.822 469.292 279.626 468.599 280.304C468.146 280.879 467.498 281.268 466.777 281.397C466.412 281.397 465.866 280.969 465.228 280.122C464.486 279.142 463.873 278.07 463.406 276.933C462.859 275.657 462.34 274.354 461.857 273.015C461.418 271.911 461.172 270.74 461.128 269.553Z" fill="#FFCBF0"/>
<path d="M618.395 199.033C619.843 199.07 621.281 199.284 622.677 199.671C624.217 200.063 625.714 200.612 627.141 201.311C628.334 201.891 629.464 202.593 630.513 203.406C631.424 204.135 631.879 204.8 631.879 205.411C629.45 210.513 627.202 215.646 625.137 220.808C623.072 225.971 621.31 230.922 619.853 235.66C618.49 240.03 617.364 244.47 616.482 248.962C615.753 252.501 615.357 256.1 615.297 259.713C615.224 262.577 615.593 265.435 616.39 268.186C616.945 270.202 618.249 271.929 620.035 273.015C618.294 274.107 616.385 274.908 614.386 275.384C612.368 275.952 610.286 276.258 608.19 276.295C601.63 276.295 598.35 271.8 598.35 262.811C598.35 255.886 600.659 246.411 605.275 234.384C602.907 239.834 600.104 245.083 596.893 250.082C593.989 254.633 590.761 258.969 587.235 263.057C584.296 266.476 580.963 269.534 577.304 272.168C574.586 274.246 571.444 275.702 568.102 276.432C563.613 276.432 559.968 274.388 557.168 270.3C554.368 266.212 552.971 260.998 552.977 254.656C553.09 247.25 554.573 239.929 557.35 233.063C560.204 225.615 563.968 218.549 568.557 212.025C572.734 205.964 577.732 200.512 583.408 195.826C588.759 191.501 593.922 189.336 598.897 189.33C600.373 189.832 601.758 190.571 602.997 191.516C604.572 192.648 606.036 193.926 607.37 195.334C608.696 196.698 609.886 198.187 610.924 199.78C611.756 200.944 612.316 202.279 612.564 203.689C607.704 204.418 602.693 206.78 597.53 210.777C592.214 214.933 587.493 219.798 583.499 225.236C579.336 230.818 575.878 236.892 573.204 243.322C570.695 248.997 569.332 255.113 569.195 261.316C569.195 263.619 570.045 265.073 571.746 265.681C575.275 264.952 579.345 261.945 583.955 256.661C588.565 251.376 594.153 243.207 600.719 232.152C601.934 229.965 603.301 227.536 604.819 224.863C606.338 222.19 607.887 219.396 609.466 216.481C611.045 213.565 612.594 210.619 614.113 207.643C615.631 204.667 617.059 201.797 618.395 199.033Z" fill="#FFCBF0"/>
<path d="M753.595 351.826C754.506 354.56 748.192 353.74 745.039 353.74C742.555 353.834 740.085 353.334 737.832 352.282C735.956 351.316 733.678 350.314 733.195 348.282C726.817 321.86 724.421 310.926 724.257 300.549C724.084 289.042 723.592 281.589 726.261 265.207C727.728 256.242 730.462 249.718 731.546 245.636C732.606 241.675 733.918 237.786 735.473 233.992C736.985 230.293 738.592 226.837 740.292 223.624C741.993 220.411 743.451 217.528 744.666 214.977C742.728 214.977 740.359 216.165 737.559 218.54C734.331 221.35 731.316 224.395 728.539 227.651C725.32 231.368 721.979 235.474 718.517 239.969C715.055 244.464 711.714 248.937 708.495 253.39C705.275 257.824 702.272 261.988 699.484 265.881C696.696 269.775 694.324 272.878 692.368 275.193C689.729 274.119 687.363 272.469 685.444 270.364C683.427 268.1 681.992 265.379 681.262 262.437C681.905 258.484 682.754 254.567 683.804 250.702C684.982 246.408 686.415 242.188 688.095 238.065C690.014 233.364 692.202 228.776 694.646 224.325C697.546 219.086 700.74 214.016 704.212 209.137C702.39 209.137 699.903 210.385 696.75 212.882C693.098 215.826 689.683 219.052 686.537 222.53C682.892 226.485 679.127 230.925 675.239 235.851C671.352 240.777 667.707 245.612 664.306 250.356C659.811 256.685 656.075 262.222 653.099 266.965C650.123 271.709 647.97 274.512 646.639 275.375C643.845 273.49 641.582 270.917 640.07 267.904C638.802 265.049 637.884 262.051 637.337 258.975C637.556 255.305 638.013 251.653 638.704 248.042C639.541 243.479 640.67 238.975 642.084 234.557C644.966 225.468 648.589 216.631 652.917 208.135C657.351 199.388 661.636 191.37 665.773 184.082C668.999 184.747 672.101 185.916 674.966 187.544C678.138 189.469 681.047 191.796 683.621 194.468C682.21 198.654 680.315 202.659 677.972 206.404C675.421 210.595 672.749 214.999 669.955 219.615C667.161 224.231 664.609 228.969 662.301 233.828C660.058 238.494 658.522 243.469 657.746 248.588C661.153 243.729 665.196 238.141 669.873 231.824C674.55 225.507 679.345 219.554 684.259 213.966C688.731 208.815 693.639 204.06 698.928 199.753C703.787 195.865 708.161 193.922 712.048 193.922C713.656 193.945 715.254 194.191 716.795 194.65C718.424 195.11 720.007 195.72 721.524 196.473C722.785 197.088 724.002 197.788 725.168 198.568C725.842 198.934 726.41 199.468 726.817 200.117C725.772 203.581 724.332 206.913 722.526 210.048C720.284 214.239 717.885 218.643 715.328 223.259C712.771 227.876 710.402 232.34 708.221 236.653C706.035 240.965 704.759 244.397 704.395 246.948C710.353 238.815 715.942 231.435 721.159 224.808C725.785 218.878 730.715 213.191 735.928 207.77C739.792 203.664 744.097 199.998 748.766 196.837C752.72 194.286 756.456 193.01 759.972 193.01C762.383 193.004 764.749 193.666 766.806 194.924C768.918 196.175 770.504 198.15 771.27 200.482C769.83 204.991 768.032 209.378 765.895 213.602C763.404 218.704 760.884 224.079 758.332 229.728C755.781 235.377 753.504 240.935 751.499 246.402C749.495 251.868 746.752 264.688 745.95 268.988C743.029 284.622 742.721 300.631 745.039 316.366" fill="#FFCBF0"/>
<path d="M1082.03 348.501C1095.17 354.14 1046.5 301.123 943.543 291.101C816.899 278.773 597.713 343.28 622.832 339.39C893.432 297.478 979.988 304.767 1082.03 348.501Z" fill="#FFCBF0"/>
</svg>
